#!OML:ASF F:\VICON\USERDATA\INSTALL\rory3\rory3.ASF
:FULLY-SPECIFIED
:DEGREES
18
root 0.42534675195904054 17.798099358621467 -15.978090178727456 2.2846218452254186 0.6486678758045776 -4.1756726422278
lfemur -31.667192885846564 6.2350925885543145 -23.079998583165345
ltibia 35.10020670797189
lfoot -5.986515439488779 -12.557893850074572
ltoes -1.411605406079131
rfemur 7.893218930643382 5.978823087366042 32.43889342983453
rtibia 65.12849817815301
rfoot 21.313689116622065 -10.142290173599621
rtoes 20.884884318325685
lowerback 14.698098820095687 2.5919100352716264 4.607403280688513
upperback -1.0102017410333217 4.330480486104184 0.7165528458416287
thorax -9.06753161736223 1.8753103204670056 -2.78188943890581
lowerneck -18.368611346227894 -5.336269848452211 -2.9208641071413304
upperneck 10.397612794137874 -7.626199413073906 7.730966736322019
head 6.586274851864978 -3.141950238794459 2.1193488543139534
lclavicle 2.980152242155136e-15 1.1900930205361627e-16
lhumerus -63.79958956471898 0.058484212704003724 91.4477167220951
lradius 106.34801085788973
lwrist 30.840009074428707
lhand -21.013597107911714 3.960633307549612
lfingers 7.125019999999999
lthumb 5.361192891759377 33.87279327029116
rclavicle 2.980152242155136e-15 1.1900930205361627e-16
rhumerus -43.082305317882415 14.72769314440129 -99.38109139143113
rradius 108.1230028856232
rwrist -17.091486991497252
rhand -12.879922889963172 38.27920488482352
rfingers 7.125019999999999
rthumb 13.20887711873328 8.717633929876264
19
root 0.379869640420213 17.58020307530544 -15.01049058451574 1.7132353028886536 0.5108902476522401 -3.733974205920541
lfemur -31.01879317604906 6.98807117031789 -23.698997709790298
ltibia 41.6930044570207
lfoot -10.827792250512465 -12.015594822799619
ltoes 6.186817667380586
rfemur 4.095390649584008 4.470036160546897 30.582896458155105
rtibia 73.31669511117782
rfoot 18.217191140765852 -10.498189459226152
rtoes 17.987786570887206
lowerback 15.263796163542803 2.6669596023906963 3.320886306872504
upperback -0.6886593125076351 4.203660924160317 0.6007919607419734
thorax -9.127100879520006 1.8740603307901216 -2.1820416426553964
lowerneck -18.317811807807377 -5.360029654983453 -2.7491180677961067
upperneck 10.198414126714493 -7.750728705595304 8.143094089709521
head 6.534706030863095 -3.166099936534477 2.2116268503482557
lclavicle 2.9801520183381984e-15 1.1900930435628032e-16
lhumerus -61.44249147521158 -1.3424495535270307 92.10111393605682
lradius 105.83001165352668
lwrist 30.078012158524004
lhand -21.1752956065549 4.063722616557755
lfingers 7.125019999999999
lthumb 5.205104392825258 33.97979255652997
rclavicle 2.9801520183381984e-15 1.1900930435628032e-16
rhumerus -44.23620430569015 13.563995717905797 -99.6081903340473
rradius 105.03600819248992
rwrist -18.14357853560978
rhand -13.9616154925898 36.65491428378376
rfingers 7.125019999999999
rthumb 12.16608451046895 7.028663874782088
20
root 0.34153091852267925 17.389506328043552 -14.060590982881102 0.9575348759007711 0.38736158104342455 -2.670097972235764
lfemur -29.474293867316362 7.108580943337533 -24.79959615690405
ltibia 46.578902788849
lfoot -14.808089628668139 -8.92958035820234
ltoes 9.881814299110316
rfemur 0.07816136782806637 2.815909529763718 27.84960091791192
rtibia 81.144092179344
rfoot 17.273391757716247 -9.26046194363601
rtoes 17.73788676519012
lowerback 16.361391009163377 2.5249004217786344 1.4240807685956396
upperback -0.13407547244723772 3.6554128179016443 0.3704311793611037
thorax -9.272859074116568 1.692281832018613 -1.2821649486655473
lowerneck -18.71290821784567 -5.255040509877583 -2.434835315506091
upperneck 9.67196764847634 -7.673549144069554 8.360362694447115
head 6.425408529689816 -3.102900727541968 2.2362563154796473
lclavicle 2.9801521098315416e-15 1.1900925727117807e-16
lhumerus -58.073594205795196 -2.584546863723701 92.64421162032774
lradius 105.51801213275205
lwrist 30.37341096293116
lhand -21.325694210116655 3.5000363948602122
lfingers 7.125019999999999
lthumb 5.059905789165616 33.41959629343668
rclavicle 2.9801521098315416e-15 1.1900925727117807e-16
rhumerus -44.695503902795714 12.389998314188604 -99.48719089742661
rradius 101.57901413542423
rwrist -16.74928974181062
rhand -13.772116788514968 38.835501665811286
rfingers 7.125019999999999
rthumb 12.34878321542665 9.220180970804856
21
root 0.31829295246290235 17.213014137411577 -12.389280717461485 1.0974283702178929 0.5673552341142261 -0.6112805527529113
lfemur -27.09294184774102 6.65810024824657 -27.00502234390635
ltibia 49.56717357452953
lfoot -19.25354047681026 -4.617555236099912
ltoes 2.820942416387256
rfemur -5.880043587049192 0.6236070862791003 24.108899897451483
rtibia 88.78783990967793
rfoot 15.354553132840444 -7.7422623439299265
rtoes 18.07199419450525
lowerback 16.91571574797461 2.390232917179378 -0.45791420420328954
upperback -0.11000143342445612 2.915899819017736 -0.04649397463096716
thorax -9.376939186382767 1.4875423195796078 -0.5987887116742816
lowerneck -19.196570685636082 -5.156612493844606 -2.4426499437802893
upperneck 9.759398388999976 -7.571216063088697 8.671531031284621
head 6.538126363500858 -3.044660135886556 2.3330939107917623
lclavicle 2.9801515526366664e-15 1.1900897868085136e-16
lhumerus -54.01419277280394 -4.410138778531442 93.32644076802075
lradius 105.29968495025253
lwrist 32.15077485147378
lhand -22.010313046930005 3.7157082573002365
lfingers 7.125019999999999
lthumb 4.392136941328666 33.5328330416822
rclavicle 2.980138167029494e-15 1.1900166242111263e-16
rhumerus -45.87721153911649 11.245705566111061 -99.58961246554729
rradius 98.45077180974397
rwrist -15.03821322988785
rhand -16.299850563895497 37.255351327064204
rfingers 7.125019999999999
rthumb 9.924548708610626 7.579903876503094
22
root 0.299862437627548 17.048997731441343 -12.011307890802087 1.4760160669837588 0.07375680098514148 0.3592060203046703
lfemur -23.669029257677742 6.233363092489381 -28.027659258232397
ltibia 50.731523773504314
lfoot -23.914517059311333 -1.6208273557231916
ltoes 5.1191443365255935
rfemur -11.898179025036928 -0.9100348603859012 21.737780440816984
rtibia 95.21396658710029
rfoot 14.020615999354481 -5.861835996971249
rtoes 17.841075371051947
lowerback 17.266522758881823 2.2446943532467296 -2.024481938627899
upperback -0.019800034579025905 2.349886408403926 -0.3324292598284635
thorax -9.584742735417048 1.2985685207863504 0.15787273186757284
lowerneck -19.576472699629136 -5.051580410338372 -2.5634932947646694
upperneck 9.57543551425143 -7.577376670294774 8.859666533607152
head 6.574976821390452 -2.9746309872111807 2.4004191427146058
lclavicle 2.980151552639852e-15 1.1900897868259255e-16
lhumerus -50.37835882590877 -6.921830917489452 93.71647792733481
lradius 104.61302344293712
lwrist 33.09997920076506
lhand -22.09836659930758 3.8245568169411865
lfingers 7.125019999999999
lthumb 4.282829076815719 33.61497843610979
rclavicle 2.9801381670441203e-15 1.1900166242910705e-16
rhumerus -47.67613163638584 9.941841188859478 -99.48753218294726
rradius 96.84178685500885
rwrist -14.13574551687555
rhand -16.057091598812438 37.48329891651602
rfingers 7.125019999999999
rthumb 10.101162536386898 7.437142818789156
